<svg width="84" height="91" viewBox="0 0 84 91" fill="none" xmlns="http://www.w3.org/2000/svg">
<circle cx="41.4296" cy="42.9691" r="40.4847" fill="white" stroke="#E6E6E6" stroke-width="0.3"/>
<path d="M37.4053 28.2665C37.3231 27.8635 37.631 27.4863 38.0423 27.4863H72.6855C73.0968 27.4863 73.4047 27.8635 73.3225 28.2665L67.2269 58.1347C66.9798 59.3455 65.9147 60.2153 64.6788 60.2153H46.049C44.8131 60.2153 43.748 59.3455 43.5009 58.1347L37.4053 28.2665Z" fill="#F2FBF9" stroke="#DAEFEA" stroke-linecap="round"/>
<path d="M51.4318 12.7374C51.349 12.3342 51.657 11.9565 52.0687 11.9565H58.6565C59.0682 11.9565 59.3762 12.3342 59.2934 12.7374L58.372 17.2262C58.1237 18.4357 57.0592 19.3039 55.8245 19.3039H54.9007C53.666 19.3039 52.6015 18.4357 52.3532 17.2262L51.4318 12.7374Z" fill="#838A92"/>
<path d="M37.7856 27.2382C37.6588 27.2965 37.7004 27.4863 37.8399 27.4863H72.8879C73.0274 27.4863 73.069 27.2965 72.9422 27.2382L57.3006 20.043C56.9598 19.8862 56.589 19.805 56.2138 19.805H54.514C54.1388 19.805 53.768 19.8862 53.4272 20.043L37.7856 27.2382Z" fill="#F2FBF9" stroke="#DAEFEA" stroke-linecap="round"/>
<path d="M73.2353 82.0912C73.3578 82.5076 73.0456 82.9248 72.6116 82.9248L38.1138 82.9248C37.6797 82.9248 37.3676 82.5076 37.49 82.0912L43.3752 62.0817C43.7007 60.975 44.7165 60.2149 45.8701 60.2149L64.8552 60.2149C66.0089 60.2149 67.0246 60.975 67.3502 62.0817L73.2353 82.0912Z" fill="#F2FBF9" stroke="#DAEFEA" stroke-linecap="round"/>
<path d="M55.4473 64.0557V79.4182" stroke="#0C3D31" stroke-width="0.390093" stroke-linecap="round"/>
<path d="M40.3242 27.4302L70.3614 27.4302" stroke="#0C3D31" stroke-width="0.390093" stroke-linecap="round"/>
<path d="M62.127 64.0557V79.4182" stroke="#0C3D31" stroke-width="0.390093" stroke-linecap="round"/>
<path d="M48.7676 64.0557V79.4182" stroke="#0C3D31" stroke-width="0.390093" stroke-linecap="round"/>
<path d="M39.139 36.2525C35.323 36.2525 32.8409 31.3378 31.2779 28.1317C31.2343 28.0423 31.1442 27.9868 31.0447 27.9868H26.6388C26.4622 27.9868 26.3362 28.1574 26.3872 28.3265C27.3293 31.4521 28.6881 38.5206 31.2073 42.5145C34.6305 47.9414 38.8886 49.3052 41.6438 49.1938L39.139 36.2525Z" fill="#F2FBF9" stroke="#DAEFEA" stroke-linecap="round"/>
<path d="M72.8124 31.7901C75.4006 29.2019 80.9753 28.7401 81.913 33.0424C83.3324 39.5548 69.8066 47.904 69.8066 47.904" stroke="#0C3D31" stroke-width="0.390093" stroke-linecap="round"/>
<path d="M12.7078 64.749C11.2716 64.749 10.0989 65.9126 10.1825 67.3464C10.7415 76.9303 14.6025 88.7827 27.997 88.7827C41.3914 88.7827 45.2524 76.9303 45.8114 67.3465C45.8951 65.9126 44.7224 64.749 43.2861 64.749H12.7078Z" fill="#91DECB"/>
<path d="M10.1675 66.4357C8.3002 64.5685 4.27837 64.2353 3.60189 67.3392C2.57789 72.0375 12.3359 78.061 12.3359 78.061" stroke="#0C3D31" stroke-width="0.390093" stroke-linecap="round"/>
<path opacity="0.3" d="M21.4323 49.6729C21.3859 49.517 21.165 49.517 21.1186 49.6729L21.063 49.8601C20.6958 51.0951 19.8144 52.1119 18.6442 52.6508C18.5284 52.7041 18.5284 52.8686 18.6442 52.9219C19.8144 53.4608 20.6958 54.4777 21.063 55.7126L21.1186 55.8998C21.165 56.0558 21.3859 56.0558 21.4323 55.8998L21.488 55.7126C21.8552 54.4777 22.7366 53.4608 23.9068 52.9219C24.0225 52.8686 24.0225 52.7041 23.9068 52.6508C22.7366 52.1119 21.8552 51.0951 21.488 49.8601L21.4323 49.6729Z" fill="#FFF5E8" stroke="#0C3D31" stroke-width="0.390093" stroke-linecap="round"/>
<path d="M10.2214 36.3334C10.2597 36.202 10.446 36.202 10.4842 36.3334L10.5336 36.5029C10.8318 37.5264 11.5552 38.3725 12.52 38.826C12.6149 38.8706 12.6149 39.0055 12.52 39.0501C11.5552 39.5036 10.8318 40.3497 10.5336 41.3732L10.4842 41.5427C10.446 41.6741 10.2597 41.6741 10.2214 41.5427L10.1721 41.3732C9.87391 40.3497 9.15045 39.5036 8.18569 39.0501C8.09081 39.0055 8.09081 38.8706 8.18569 38.826C9.15045 38.3725 9.87391 37.5264 10.1721 36.5029L10.2214 36.3334Z" fill="#91DECB"/>
<path d="M31.2336 12.5786C31.2883 12.3947 31.5487 12.3947 31.6033 12.5786L31.669 12.7998C32.1013 14.2546 33.1394 15.4527 34.5178 16.0879C34.6541 16.1507 34.6541 16.3444 34.5178 16.4072C33.1394 17.0424 32.1013 18.2405 31.669 19.6954L31.6033 19.9166C31.5487 20.1004 31.2883 20.1004 31.2336 19.9166L31.1679 19.6954C30.7356 18.2405 29.6976 17.0424 28.3192 16.4072C28.1829 16.3444 28.1829 16.1507 28.3192 16.0879C29.6976 15.4527 30.7356 14.2546 31.1679 12.7998L31.2336 12.5786Z" fill="white"/>
<circle cx="15.9445" cy="24.2443" r="0.585139" fill="#0C3D31"/>
<circle cx="41.4296" cy="42.9691" r="40.1347" fill="white" stroke="#E6E6E6"/>
<path d="M37.4053 28.2665C37.3231 27.8635 37.631 27.4863 38.0423 27.4863H72.6855C73.0968 27.4863 73.4047 27.8635 73.3225 28.2665L67.2269 58.1347C66.9798 59.3455 65.9147 60.2153 64.6788 60.2153H46.049C44.8131 60.2153 43.748 59.3455 43.5009 58.1347L37.4053 28.2665Z" fill="#F2FBF9" stroke="#DAEFEA" stroke-width="1.5" stroke-linecap="round"/>
<path d="M51.4318 12.7374C51.349 12.3342 51.657 11.9565 52.0687 11.9565H58.6565C59.0682 11.9565 59.3762 12.3342 59.2934 12.7374L58.372 17.2262C58.1237 18.4357 57.0592 19.3039 55.8245 19.3039H54.9007C53.666 19.3039 52.6015 18.4357 52.3532 17.2262L51.4318 12.7374Z" fill="#BBBBBB"/>
<path d="M37.7856 27.2382C37.6588 27.2965 37.7004 27.4863 37.8399 27.4863H72.8879C73.0274 27.4863 73.069 27.2965 72.9422 27.2382L57.3006 20.043C56.9598 19.8862 56.589 19.805 56.2138 19.805H54.514C54.1388 19.805 53.768 19.8862 53.4272 20.043L37.7856 27.2382Z" fill="#F2FBF9" stroke="#DAEFEA" stroke-width="1.5" stroke-linecap="round"/>
<path d="M73.2353 82.0912C73.3578 82.5076 73.0456 82.9248 72.6116 82.9248L38.1138 82.9248C37.6797 82.9248 37.3676 82.5076 37.49 82.0912L43.3752 62.0817C43.7007 60.975 44.7165 60.2149 45.8701 60.2149L64.8552 60.2149C66.0089 60.2149 67.0246 60.975 67.3502 62.0817L73.2353 82.0912Z" fill="#F2FBF9" stroke="#DAEFEA" stroke-width="1.5" stroke-linecap="round"/>
<path d="M55.4473 64.0557V79.4182" stroke="#BBBBBB" stroke-width="1.5" stroke-linecap="round"/>
<path d="M40.3242 27.4302L70.3614 27.4302" stroke="#91DECB" stroke-width="1.5" stroke-linecap="round"/>
<path d="M62.127 64.0557V79.4182" stroke="#BBBBBB" stroke-width="1.5" stroke-linecap="round"/>
<path d="M48.7676 64.0557V79.4182" stroke="#BBBBBB" stroke-width="1.5" stroke-linecap="round"/>
<path d="M39.139 36.2525C35.323 36.2525 32.8409 31.3378 31.2779 28.1317C31.2343 28.0423 31.1442 27.9868 31.0447 27.9868H26.6388C26.4622 27.9868 26.3362 28.1574 26.3872 28.3265C27.3293 31.4521 28.6881 38.5206 31.2073 42.5145C34.6305 47.9414 38.8886 49.3052 41.6438 49.1938L39.139 36.2525Z" fill="#F2FBF9" stroke="#DAEFEA" stroke-width="1.5" stroke-linecap="round"/>
<path d="M72.8124 31.7901C75.4006 29.2019 80.9753 28.7401 81.913 33.0424C83.3324 39.5548 69.8066 47.904 69.8066 47.904" stroke="#BBBBBB" stroke-width="1.5" stroke-linecap="round"/>
<path d="M12.7078 64.749C11.2716 64.749 10.0989 65.9126 10.1825 67.3464C10.7415 76.9303 14.6025 88.7827 27.997 88.7827C41.3914 88.7827 45.2524 76.9303 45.8114 67.3465C45.8951 65.9126 44.7224 64.749 43.2861 64.749H12.7078Z" fill="#91DECB"/>
<path d="M10.1675 66.4357C8.3002 64.5685 4.27837 64.2353 3.60189 67.3392C2.57789 72.0375 12.3359 78.061 12.3359 78.061" stroke="#BBBBBB" stroke-width="1.5" stroke-linecap="round"/>
<path opacity="0.3" d="M21.4323 49.6729C21.3859 49.517 21.165 49.517 21.1186 49.6729L21.063 49.8601C20.6958 51.0951 19.8144 52.1119 18.6442 52.6508V52.6508C18.5284 52.7041 18.5284 52.8686 18.6442 52.9219V52.9219C19.8144 53.4608 20.6958 54.4777 21.063 55.7126L21.1186 55.8998C21.165 56.0558 21.3859 56.0558 21.4323 55.8998L21.488 55.7126C21.8552 54.4777 22.7366 53.4608 23.9068 52.9219V52.9219C24.0225 52.8686 24.0225 52.7041 23.9068 52.6508V52.6508C22.7366 52.1119 21.8552 51.0951 21.488 49.8601L21.4323 49.6729Z" fill="#FFF5E8" stroke="#0C3D31" stroke-linecap="round"/>
<path d="M10.2214 36.3334C10.2597 36.202 10.446 36.202 10.4842 36.3334L10.5336 36.5029C10.8318 37.5264 11.5552 38.3725 12.52 38.826V38.826C12.6149 38.8706 12.6149 39.0055 12.52 39.0501V39.0501C11.5552 39.5036 10.8318 40.3497 10.5336 41.3732L10.4842 41.5427C10.446 41.6741 10.2597 41.6741 10.2214 41.5427L10.1721 41.3732C9.87391 40.3497 9.15045 39.5036 8.18569 39.0501V39.0501C8.09081 39.0055 8.09081 38.8706 8.18569 38.826V38.826C9.15045 38.3725 9.87391 37.5264 10.1721 36.5029L10.2214 36.3334Z" fill="#91DECB"/>
<path d="M31.2336 12.5786C31.2883 12.3947 31.5487 12.3947 31.6033 12.5786L31.669 12.7998C32.1013 14.2546 33.1394 15.4527 34.5178 16.0879V16.0879C34.6541 16.1507 34.6541 16.3444 34.5178 16.4073V16.4073C33.1394 17.0424 32.1013 18.2405 31.669 19.6954L31.6033 19.9166C31.5487 20.1004 31.2883 20.1004 31.2336 19.9166L31.1679 19.6954C30.7356 18.2405 29.6976 17.0424 28.3192 16.4073V16.4073C28.1829 16.3444 28.1829 16.1507 28.3192 16.0879V16.0879C29.6976 15.4527 30.7356 14.2546 31.1679 12.7998L31.2336 12.5786Z" fill="white"/>
<circle cx="15.9445" cy="24.2443" r="0.585139" fill="#BBBBBB"/>
</svg>
