<svg width="90" height="90" viewBox="0 0 90 90" fill="none" xmlns="http://www.w3.org/2000/svg">
<circle cx="45" cy="45" r="45" fill="#E2F8F3"/>
<path d="M6.5136 44.6272C6.5136 67.5151 32.7419 77.0321 50.648 77.1224C51.9321 77.1289 52.4762 75.4567 51.5628 74.5543C46.4593 69.5122 39.4932 59.4935 38.7238 45.9633C37.9039 31.5448 43.14 17.1422 46.7869 9.80653C47.2975 8.7794 46.4618 7.56906 45.3338 7.77732C30.6717 10.4843 6.05669 20.7929 6.5136 44.6272Z" fill="#91DECB" stroke="#BBBBBB" stroke-width="1.5" stroke-linecap="round"/>
<path d="M58.0649 37.8166C58.1276 37.5835 58.4583 37.5835 58.521 37.8166L58.6209 38.1878C59.0787 39.889 60.2365 41.3163 61.8067 42.1152V42.1152C61.9577 42.1921 61.9577 42.4079 61.8067 42.4848V42.4848C60.2365 43.2837 59.0787 44.711 58.6209 46.4122L58.521 46.7835C58.4583 47.0165 58.1276 47.0165 58.0649 46.7835L57.965 46.4122C57.5072 44.711 56.3494 43.2837 54.7792 42.4848V42.4848C54.6281 42.4079 54.6281 42.1921 54.7792 42.1152V42.1152C56.3494 41.3163 57.5072 39.889 57.965 38.1878L58.0649 37.8166Z" stroke="#91DECB" stroke-linecap="round"/>
<circle cx="25.754" cy="27.8306" r="1.24615" fill="white"/>
<path d="M70.6194 25.2378C70.6589 25.1042 70.8481 25.1042 70.8877 25.2378L70.9359 25.4008C71.2479 26.4546 71.9984 27.3231 72.9959 27.7844V27.7844C73.0944 27.83 73.0944 27.9701 72.9959 28.0157V28.0157C71.9984 28.477 71.2479 29.3455 70.9359 30.3993L70.8877 30.5623C70.8481 30.6959 70.6589 30.6959 70.6194 30.5623L70.5712 30.3993C70.2592 29.3455 69.5086 28.477 68.5112 28.0157V28.0157C68.4126 27.9701 68.4126 27.83 68.5112 27.7844V27.7844C69.5086 27.3231 70.2592 26.4546 70.5712 25.4008L70.6194 25.2378Z" fill="#91DECB"/>
<circle cx="23.3998" cy="49.4306" r="3.6" fill="white" stroke="#BBBBBB" stroke-width="1.5" stroke-linecap="round"/>
<circle opacity="0.7" cx="14.1237" cy="35.8617" r="2.63077" fill="white"/>
<circle cx="74.7002" cy="51.5769" r="1.45385" fill="#BBBBBB"/>
</svg>
